<svg width="80" height="80" viewBox="0 0 80 80" fill="none" xmlns="http://www.w3.org/2000/svg">
<circle cx="40" cy="40" r="40" fill="#007C5A"/>
<mask id="mask0_740:1782" style="mask-type:alpha" maskUnits="userSpaceOnUse" x="0" y="0" width="80" height="80">
<circle cx="40" cy="40" r="40" fill="white"/>
</mask>
<g mask="url(#mask0_740:1782)">
<path fill-rule="evenodd" clip-rule="evenodd" d="M20.1207 58.4846C21.9968 58.4846 22.9761 57.8515 22.9761 56.5276C22.9761 55.2325 21.9667 54.5141 20.0081 54.5141C19.2821 54.5141 18.4135 54.5716 17.4613 54.7165V50.343C18.2446 50.4284 18.9735 50.4572 19.7014 50.4572C21.7163 50.4572 22.7227 49.8538 22.7227 48.4734C22.7227 47.1217 21.8017 46.4886 19.8974 46.4886C18.6648 46.4886 17.0974 46.8329 15.1669 47.4383V42.8922C16.8742 42.2878 18.9453 42 21.3805 42C26.67 42 29.7195 44.3301 29.7195 47.9851C29.7195 50.2289 28.2928 51.8673 25.8023 52.4142C28.5723 52.9897 30 54.5716 30 56.9881C30 60.787 26.8932 63 20.9602 63C18.9735 63 17.0149 62.7142 15 62.2249V57.5349C16.9867 58.1403 18.6648 58.4846 20.1207 58.4846ZM50 55.9712C50 52.1114 47.1989 49.4889 42.9806 49.4889C41.2562 49.4889 39.9538 49.8059 38.7652 50.7291C38.8496 47.731 40.3493 46.4073 43.5754 46.4073C45.1899 46.4073 46.717 46.6378 48.3011 47.1278V42.5456C46.5767 42.1719 44.9062 42 43.3496 42C36.0485 42 32 45.974 32 53.0336C32 59.2267 35.8218 63 41.7646 63C46.8034 63 50 60.1191 50 55.9712ZM41.2836 53.0893C42.643 53.0893 43.5754 54.1566 43.5754 55.8281C43.5754 57.4976 42.6704 58.5341 41.2836 58.5341C39.9253 58.5341 39.0194 57.4976 39.0194 55.8281C39.0194 54.1268 39.9253 53.0893 41.2836 53.0893ZM65.1773 42H51.3409V53.7097C52.5055 53.4137 53.612 53.2081 54.75 53.2081C57.4211 53.2081 58.7266 54.0628 58.7266 55.7741C58.7266 57.3084 57.4773 58.1346 55.0909 58.1346C53.9263 58.1346 52.5617 57.9281 51 57.4844V62.1453C53.0445 62.6775 55.0633 63 57.1078 63C62.989 63 66 60.5225 66 56.3642C66 52.323 63.5299 49.935 58.9542 49.935C58.8706 49.935 58.6965 49.9451 58.4441 49.9596C58.2712 49.9696 58.0616 49.9816 57.8192 49.994V46.8969H65.1773V42Z" fill="#FFE318"/>
<path fill-rule="evenodd" clip-rule="evenodd" d="M22.1653 17H15V38.7955H21.6703V36.2683C22.6016 38.1279 24.2328 39 26.6509 39C30.6112 39 33 36.1219 33 31.2971C33 26.2397 30.6415 23.3927 26.4761 23.3927C24.5833 23.3927 23.1844 24.0323 22.1653 25.3986V17ZM23.7379 34.4368C22.4561 34.4368 21.9612 33.3612 21.9612 31.1517C21.9612 28.9443 22.4561 27.8687 23.7379 27.8687C25.0196 27.8687 25.5439 28.9443 25.5439 31.1517C25.5439 33.3612 24.9903 34.4368 23.7379 34.4368ZM41.0224 32.6118H51V31.6251C51 25.7588 48.6599 23 42.6614 23C37.2474 23 34 25.9912 34 30.986C34 36.0969 37.3062 39 43.4509 39C46.1137 39 48.396 38.6223 50.0633 37.9552V34.0924C48.3676 34.7315 46.611 35.0511 44.9142 35.0511C42.4858 35.0511 41.198 34.2667 41.0224 32.6118ZM44.7387 29.2149V29.6777H40.9636V29.2429C40.9636 27.4999 41.607 26.5131 42.8663 26.5131C44.0943 26.5131 44.7387 27.4999 44.7387 29.2149ZM65 23.5529H61.6765V18L54.5361 20.2158V23.5529H52V27.9537H54.5361V31.6084C54.5361 34.0236 54.5654 35.8346 55.7309 37.2734C56.6346 38.3669 58.1801 39 60.1916 39C61.823 39 63.3686 38.8273 64.911 38.3669V34.0514C64.2995 34.1963 63.7769 34.2538 63.3969 34.2538C61.9696 34.2538 61.6765 33.3905 61.6765 31.5498V27.9537H65V23.5529Z" fill="white"/>
</g>
</svg>
